<svg width="20" height="20" viewBox="0 0 20 20" fill="none" xmlns="http://www.w3.org/2000/svg">
<g clip-path="url(#clip0_205_43)">
<path d="M18.9526 18.3197L0.921557 0.288632C0.761501 0.128575 0.490903 0.142291 0.316438 0.316757C0.141973 0.491222 0.130411 0.759665 0.290467 0.919722L18.3196 18.9489C18.4796 19.1089 18.7481 19.0974 18.9225 18.9229C19.097 18.7484 19.1085 18.48 18.9485 18.3199L18.9526 18.3197Z" fill="black"/>
<path d="M18.3193 0.286459L0.288265 18.3175C0.128208 18.4776 0.141924 18.7482 0.31639 18.9226C0.490855 19.0971 0.759298 19.1087 0.919355 18.9486L18.9485 0.919526C19.1085 0.759469 19.097 0.491024 18.9225 0.316559C18.748 0.142094 18.4796 0.130533 18.3195 0.29059L18.3193 0.286459Z" fill="black"/>
</g>
<defs>
<clipPath id="clip0_205_43">
<rect width="20" height="20" fill="white"/>
</clipPath>
</defs>
</svg>
